<?xml version="1.0" standalone="no"?>
<!DOCTYPE svg PUBLIC "-//W3C//DTD SVG 20010904//EN"
 "http://www.w3.org/TR/2001/REC-SVG-20010904/DTD/svg10.dtd">
<svg version="1.0" xmlns="http://www.w3.org/2000/svg"
 width="168.000000pt" height="144.000000pt" viewBox="0 0 168.000000 144.000000"
 preserveAspectRatio="xMidYMid meet">
<metadata>
Anonymous
</metadata>
<g transform="translate(0.000000,144.000000) scale(0.100000,-0.100000)"
fill="#3e70b2" stroke="none">
<path d="M314 1431 c3 -4 -1 -17 -9 -27 -8 -10 -15 -29 -15 -40 0 -12 -7 -27
-15 -34 -8 -7 -15 -20 -15 -29 0 -10 -7 -26 -15 -37 -8 -10 -15 -31 -15 -45 0
-15 -7 -32 -15 -39 -8 -7 -15 -22 -15 -34 0 -11 -7 -30 -15 -40 -8 -11 -15
-30 -15 -42 0 -12 -7 -27 -15 -34 -8 -7 -15 -18 -15 -24 0 -9 -62 -142 -102
-220 -38 -73 -39 -336 -2 -367 8 -6 14 -22 14 -36 0 -13 6 -26 14 -29 8 -3 17
-17 20 -30 7 -26 129 -154 148 -154 5 0 27 -13 48 -30 21 -16 44 -30 52 -30 8
0 19 -5 26 -12 13 -13 73 -37 112 -45 14 -2 46 -11 72 -19 60 -19 538 -15 608
6 57 16 121 39 140 51 8 5 26 14 40 20 14 6 39 21 57 35 17 13 36 24 41 24 15
0 126 114 142 147 8 15 21 32 27 36 7 4 13 18 13 31 0 13 7 29 15 36 8 7 15
27 15 45 0 53 12 95 26 95 9 0 14 11 14 30 0 19 -5 30 -14 30 -14 0 -26 42
-26 91 0 31 -35 118 -79 199 -30 55 -41 80 -41 93 0 8 -7 20 -15 27 -8 7 -15
23 -15 35 0 12 -7 28 -15 35 -8 7 -15 25 -15 40 0 15 -7 33 -15 40 -8 7 -15
21 -15 32 0 11 -6 32 -13 46 -8 15 -21 42 -30 60 -9 19 -17 42 -17 53 0 11 -7
22 -15 25 -8 4 -15 15 -15 25 0 12 -7 19 -20 19 -11 0 -20 -5 -20 -11 0 -14
-169 -204 -190 -214 -28 -13 -520 -18 -549 -5 -29 13 -194 191 -199 215 -2 8
-14 15 -28 15 -14 0 -23 -4 -20 -9z m82 -168 c15 -21 48 -59 73 -85 42 -46 47
-48 98 -48 l53 0 0 -86 c0 -77 2 -88 23 -104 21 -18 23 -18 44 2 21 20 22 27
16 105 l-6 84 39 -3 39 -3 -3 -82 c-3 -72 -1 -84 17 -102 26 -26 29 -26 51 1
15 19 17 35 12 106 l-5 83 39 -3 39 -3 -3 -82 c-2 -72 0 -85 18 -103 25 -25
25 -25 51 1 19 19 21 30 17 102 l-3 82 72 3 72 3 58 65 c32 36 62 74 67 85 5
10 15 19 21 19 18 0 45 -45 45 -73 0 -13 7 -32 15 -43 8 -10 15 -29 15 -40 0
-12 7 -27 15 -34 8 -7 15 -21 15 -32 0 -11 6 -32 13 -46 15 -28 41 -86 51
-112 3 -8 10 -22 15 -30 5 -8 12 -22 15 -30 3 -8 10 -22 15 -30 5 -8 12 -22
15 -30 3 -8 10 -22 15 -30 38 -66 55 -241 27 -282 -9 -12 -16 -34 -16 -49 0
-15 -7 -29 -15 -33 -8 -3 -15 -10 -15 -17 0 -18 -91 -129 -106 -129 -3 0 -23
-13 -43 -28 -68 -53 -201 -109 -291 -123 -30 -5 -71 -13 -90 -19 -45 -13 -273
-13 -325 1 -22 5 -62 14 -90 18 -50 9 -93 22 -150 46 -16 7 -37 16 -45 19 -8
3 -28 15 -45 26 -16 11 -39 24 -50 29 -51 23 -175 172 -175 209 0 10 -7 27
-15 38 -16 21 -22 209 -6 218 5 3 12 18 16 33 5 23 32 81 84 183 34 66 41 84
41 105 0 12 7 25 15 29 8 3 15 16 15 28 0 13 7 32 15 42 8 11 15 32 15 47 0
14 7 32 15 39 8 7 15 22 15 34 0 23 26 66 39 66 5 0 21 -17 37 -37z"/>
<path d="M535 819 c-4 -5 -18 -14 -31 -19 -26 -10 -48 -54 -40 -77 10 -24 37
-26 66 -4 16 11 43 21 60 21 17 0 44 -10 60 -21 29 -22 56 -20 66 4 8 23 -14
67 -40 77 -13 5 -27 14 -31 19 -3 6 -28 11 -55 11 -27 0 -52 -5 -55 -11z"/>
<path d="M988 811 c-38 -24 -69 -66 -62 -84 11 -31 76 -31 88 -1 7 18 80 19
95 0 20 -23 64 -30 77 -11 18 24 6 52 -36 85 -31 24 -47 30 -86 29 -28 0 -61
-8 -76 -18z"/>
<path d="M230 650 c-8 -5 -10 -18 -7 -32 7 -26 61 -58 100 -58 12 -1 33 -7 47
-15 35 -20 57 -18 80 5 11 11 20 22 20 25 0 13 -42 45 -60 45 -12 0 -33 6 -48
14 -33 16 -115 26 -132 16z"/>
<path d="M1327 650 c-21 -4 -43 -12 -50 -19 -6 -6 -26 -11 -44 -11 -37 0 -53
-24 -45 -67 5 -27 46 -32 78 -8 10 8 32 15 47 15 16 0 41 6 55 14 15 8 35 17
45 20 22 7 23 52 1 60 -18 7 -35 6 -87 -4z"/>
<path d="M608 476 c-37 -28 -13 -74 59 -110 41 -21 73 -20 118 1 35 17 38 17
67 0 46 -27 90 -22 140 16 53 40 62 76 23 97 -23 12 -28 11 -53 -13 -34 -33
-83 -36 -112 -7 -11 11 -27 20 -35 20 -8 0 -24 -9 -35 -20 -29 -29 -81 -26
-110 5 -26 28 -37 30 -62 11z"/>
<path d="M345 455 c-16 -8 -42 -14 -56 -15 -42 0 -72 -30 -64 -63 6 -23 12
-27 44 -27 20 1 47 7 61 15 14 8 39 14 57 15 19 0 43 10 59 23 58 50 -19 89
-101 52z"/>
<path d="M1186 455 c-8 -21 9 -61 29 -69 9 -3 31 -6 48 -6 18 0 41 -7 51 -15
31 -23 93 -19 107 6 16 31 -22 69 -70 69 -20 1 -47 7 -61 15 -34 19 -96 19
-104 0z"/>
</g>
</svg>
