<?xml version="1.0" standalone="no"?>
<!DOCTYPE svg PUBLIC "-//W3C//DTD SVG 20010904//EN"
 "http://www.w3.org/TR/2001/REC-SVG-20010904/DTD/svg10.dtd">
<svg version="1.0" xmlns="http://www.w3.org/2000/svg"
 width="177.000000pt" height="147.000000pt" viewBox="0 0 177.000000 147.000000"
 preserveAspectRatio="xMidYMid meet">
<metadata>
Anonymous
</metadata>
<g transform="translate(0.000000,147.000000) scale(0.100000,-0.100000)"
fill="#3e70b2" stroke="none">
<path d="M671 1415 c-18 -8 -43 -15 -55 -15 -12 0 -31 -7 -42 -15 -10 -8 -26
-15 -35 -15 -9 0 -22 -7 -29 -15 -7 -8 -19 -15 -27 -15 -29 0 -137 -97 -219
-196 -19 -23 -34 -44 -34 -49 0 -4 -13 -24 -30 -45 -16 -21 -30 -42 -30 -48 0
-5 -7 -15 -15 -22 -8 -7 -15 -19 -15 -26 0 -8 -13 -33 -30 -56 -16 -22 -30
-51 -30 -63 0 -13 -7 -28 -15 -35 -8 -7 -15 -22 -15 -34 0 -11 -7 -30 -15 -40
-11 -15 -15 -48 -15 -126 l0 -106 51 -57 c45 -50 55 -57 89 -57 22 0 43 -6 51
-16 8 -10 22 -14 40 -10 31 6 69 -27 69 -61 0 -11 7 -26 15 -33 8 -7 15 -18
15 -26 0 -17 89 -113 115 -125 11 -5 38 -20 60 -34 22 -13 50 -24 61 -25 12 0
38 -7 57 -15 52 -22 454 -22 483 0 10 8 35 15 55 15 19 0 44 7 55 15 10 8 26
15 35 15 23 0 159 128 159 150 0 10 7 23 15 30 8 7 15 22 15 34 0 35 22 55 64
61 22 2 44 9 50 15 5 5 20 10 32 10 12 0 27 7 34 15 7 8 18 15 25 15 21 0 65
59 65 87 0 16 7 27 20 30 17 5 20 14 20 64 0 44 -4 59 -14 59 -17 0 -26 21
-26 59 0 15 -7 36 -15 47 -8 10 -15 29 -15 42 0 12 -7 25 -15 28 -8 4 -15 16
-15 29 0 12 -7 28 -15 35 -8 7 -15 21 -15 32 0 10 -7 21 -15 24 -8 4 -15 13
-15 21 0 8 -13 32 -30 53 -16 21 -30 41 -30 45 0 10 -62 88 -77 98 -7 4 -13
15 -13 25 0 16 -106 122 -123 122 -5 0 -26 14 -47 30 -21 17 -49 30 -63 30
-13 0 -30 7 -37 15 -7 8 -29 15 -50 15 -21 0 -43 7 -50 15 -18 22 -369 21
-419 0z m353 -60 c11 -8 39 -15 62 -15 25 0 47 -6 54 -15 7 -8 24 -15 37 -15
14 0 42 -13 63 -30 21 -16 42 -30 46 -30 12 0 114 -103 114 -115 0 -5 20 -33
45 -60 25 -28 45 -58 45 -67 0 -10 5 -18 10 -18 6 0 15 -10 21 -22 22 -49 41
-78 50 -78 5 0 9 -11 9 -25 0 -14 7 -28 15 -31 8 -4 15 -17 15 -30 0 -14 7
-27 15 -30 9 -4 15 -19 15 -39 0 -18 7 -38 15 -45 24 -20 20 -168 -4 -197 -11
-13 -23 -23 -27 -23 -4 0 -15 -7 -24 -15 -8 -8 -36 -15 -60 -17 -41 -3 -45 -1
-48 21 -2 13 1 34 8 46 11 21 9 120 -5 305 -5 61 -10 78 -28 92 -21 16 -23 16
-44 -4 -27 -25 -29 -41 -8 -58 22 -18 22 -374 0 -416 -8 -16 -15 -45 -15 -65
0 -24 -5 -39 -15 -43 -8 -3 -15 -15 -15 -27 0 -30 -123 -149 -153 -149 -13 0
-32 -7 -43 -15 -10 -8 -37 -15 -60 -15 -22 0 -49 -7 -60 -15 -15 -11 -53 -14
-166 -15 -81 0 -149 4 -153 9 -3 6 -27 13 -53 16 -26 3 -59 13 -74 21 -14 8
-35 14 -45 14 -25 0 -153 127 -153 151 0 11 -7 22 -15 25 -9 4 -15 19 -15 37
0 17 -6 38 -14 46 -20 23 -29 156 -11 171 7 6 45 14 84 17 41 3 76 12 82 19 6
8 22 14 34 14 12 0 28 7 35 15 7 8 19 15 26 15 12 0 48 29 107 86 51 49 77 83
77 102 0 11 7 22 15 26 8 3 15 16 15 29 0 14 7 30 15 37 11 9 15 33 15 91 0
43 5 81 10 84 6 3 10 35 10 70 0 35 -4 67 -10 70 -5 3 -10 33 -10 66 l0 59 73
0 c47 -1 79 -6 91 -15z m-239 -12 c4 -10 10 -79 13 -155 4 -115 2 -140 -12
-159 -9 -13 -16 -42 -16 -65 0 -25 -6 -47 -15 -54 -8 -7 -15 -18 -15 -25 0
-36 -86 -145 -114 -145 -8 0 -19 -7 -26 -15 -7 -8 -20 -15 -30 -15 -10 0 -23
-7 -30 -15 -7 -8 -21 -15 -32 -15 -10 0 -32 -7 -47 -15 -31 -15 -100 -23 -118
-12 -7 5 -8 19 -2 44 5 21 9 72 9 114 0 59 -3 78 -15 83 -22 8 -38 -1 -57 -33
-14 -25 -16 -56 -14 -203 2 -95 5 -184 7 -198 4 -24 2 -25 -46 -22 -55 4 -81
22 -121 84 -28 43 -30 83 -9 124 8 16 15 43 15 60 0 17 7 37 15 44 8 7 15 17
15 23 0 15 40 96 51 103 5 3 9 13 9 24 0 10 7 20 15 24 8 3 15 14 15 24 0 10
13 32 30 48 16 16 30 35 30 42 0 8 19 35 41 60 23 26 46 56 51 67 12 24 131
115 152 115 7 0 16 7 20 15 3 8 17 15 32 15 14 0 38 6 52 14 27 14 92 32 123
35 9 0 20 -7 24 -16z"/>
<path d="M1083 923 c-29 -34 -29 -65 1 -97 44 -48 106 -19 106 49 0 69 -64 97
-107 48z"/>
<path d="M810 725 c-7 -8 -18 -15 -25 -15 -8 0 -27 -12 -44 -26 -28 -23 -31
-31 -31 -83 0 -56 1 -58 53 -107 28 -28 60 -53 70 -57 39 -14 10 -60 -63 -97
l-41 -21 -45 23 c-25 13 -57 29 -71 37 -51 27 -83 -23 -40 -62 49 -44 83 -57
154 -57 69 0 96 11 137 53 23 23 43 22 56 -3 6 -11 19 -20 29 -20 10 0 24 -7
31 -15 19 -22 142 -21 177 3 43 28 73 58 73 74 0 38 -60 48 -74 13 -3 -8 -16
-15 -28 -15 -13 0 -34 -7 -46 -16 -21 -14 -26 -14 -67 6 -42 20 -85 62 -85 82
0 5 8 12 18 15 17 7 56 39 98 83 20 21 24 35 24 86 0 64 -8 77 -72 117 -36 23
-170 24 -188 2z m144 -69 c66 -27 63 -64 -12 -133 -42 -41 -58 -41 -103 0 -71
64 -70 119 3 135 61 14 75 14 112 -2z"/>
<path d="M578 929 c-26 -28 -23 -86 5 -110 29 -24 44 -24 73 4 30 28 32 79 4
107 -25 25 -59 24 -82 -1z"/>
</g>
</svg>
